<svg width="149" height="24" viewBox="0 0 149 24" fill="none" xmlns="http://www.w3.org/2000/svg">
<g clip-path="url(#clip0_2_8955)">
<path d="M9.53834 3.60996C9.70914 3.19932 10.2909 3.19932 10.4617 3.60996L12.5278 8.57744C12.5998 8.75056 12.7626 8.86885 12.9495 8.88383L18.3123 9.31376C18.7556 9.3493 18.9354 9.90256 18.5976 10.1919L14.5117 13.6919C14.3693 13.8139 14.3071 14.0053 14.3506 14.1876L15.5989 19.4208C15.7021 19.8534 15.2315 20.1954 14.8519 19.9635L10.2606 17.1592C10.1006 17.0615 9.89938 17.0615 9.73937 17.1592L5.14806 19.9635C4.76851 20.1954 4.29788 19.8534 4.40108 19.4208L5.64939 14.1876C5.69289 14.0053 5.6307 13.8139 5.48831 13.6919L1.40241 10.1919C1.06464 9.90256 1.24441 9.3493 1.68773 9.31376L7.05054 8.88383C7.23744 8.86885 7.40024 8.75056 7.47225 8.57744L9.53834 3.60996Z" fill="#F2F4F7"/>
<g clip-path="url(#clip1_2_8955)">
<path d="M9.53834 3.60996C9.70914 3.19932 10.2909 3.19932 10.4617 3.60996L12.5278 8.57744C12.5998 8.75056 12.7626 8.86885 12.9495 8.88383L18.3123 9.31376C18.7556 9.3493 18.9354 9.90256 18.5976 10.1919L14.5117 13.6919C14.3693 13.8139 14.3071 14.0053 14.3506 14.1876L15.5989 19.4208C15.7021 19.8534 15.2315 20.1954 14.8519 19.9635L10.2606 17.1592C10.1006 17.0615 9.89938 17.0615 9.73937 17.1592L5.14806 19.9635C4.76851 20.1954 4.29788 19.8534 4.40108 19.4208L5.64939 14.1876C5.69289 14.0053 5.6307 13.8139 5.48831 13.6919L1.40241 10.1919C1.06464 9.90256 1.24441 9.3493 1.68773 9.31376L7.05054 8.88383C7.23744 8.86885 7.40024 8.75056 7.47225 8.57744L9.53834 3.60996Z" fill="#FDB022"/>
</g>
</g>
<g clip-path="url(#clip2_2_8955)">
<path d="M33.5383 3.60996C33.7091 3.19932 34.2909 3.19932 34.4617 3.60996L36.5278 8.57744C36.5998 8.75056 36.7626 8.86885 36.9495 8.88383L42.3123 9.31376C42.7556 9.3493 42.9354 9.90256 42.5976 10.1919L38.5117 13.6919C38.3693 13.8139 38.3071 14.0053 38.3506 14.1876L39.5989 19.4208C39.7021 19.8534 39.2315 20.1954 38.8519 19.9635L34.2606 17.1592C34.1006 17.0615 33.8994 17.0615 33.7394 17.1592L29.1481 19.9635C28.7685 20.1954 28.2979 19.8534 28.4011 19.4208L29.6494 14.1876C29.6929 14.0053 29.6307 13.8139 29.4883 13.6919L25.4024 10.1919C25.0646 9.90256 25.2444 9.3493 25.6877 9.31376L31.0505 8.88383C31.2374 8.86885 31.4002 8.75056 31.4722 8.57744L33.5383 3.60996Z" fill="#F2F4F7"/>
<g clip-path="url(#clip3_2_8955)">
<path d="M33.5383 3.60996C33.7091 3.19932 34.2909 3.19932 34.4617 3.60996L36.5278 8.57744C36.5998 8.75056 36.7626 8.86885 36.9495 8.88383L42.3123 9.31376C42.7556 9.3493 42.9354 9.90256 42.5976 10.1919L38.5117 13.6919C38.3693 13.8139 38.3071 14.0053 38.3506 14.1876L39.5989 19.4208C39.7021 19.8534 39.2315 20.1954 38.8519 19.9635L34.2606 17.1592C34.1006 17.0615 33.8994 17.0615 33.7394 17.1592L29.1481 19.9635C28.7685 20.1954 28.2979 19.8534 28.4011 19.4208L29.6494 14.1876C29.6929 14.0053 29.6307 13.8139 29.4883 13.6919L25.4024 10.1919C25.0646 9.90256 25.2444 9.3493 25.6877 9.31376L31.0505 8.88383C31.2374 8.86885 31.4002 8.75056 31.4722 8.57744L33.5383 3.60996Z" fill="#FDB022"/>
</g>
</g>
<g clip-path="url(#clip4_2_8955)">
<path d="M57.5383 3.60996C57.7091 3.19932 58.2909 3.19932 58.4617 3.60996L60.5278 8.57744C60.5998 8.75056 60.7626 8.86885 60.9495 8.88383L66.3123 9.31376C66.7556 9.3493 66.9354 9.90256 66.5976 10.1919L62.5117 13.6919C62.3693 13.8139 62.3071 14.0053 62.3506 14.1876L63.5989 19.4208C63.7021 19.8534 63.2315 20.1954 62.8519 19.9635L58.2606 17.1592C58.1006 17.0615 57.8994 17.0615 57.7394 17.1592L53.1481 19.9635C52.7685 20.1954 52.2979 19.8534 52.4011 19.4208L53.6494 14.1876C53.6929 14.0053 53.6307 13.8139 53.4883 13.6919L49.4024 10.1919C49.0646 9.90256 49.2444 9.3493 49.6877 9.31376L55.0505 8.88383C55.2374 8.86885 55.4002 8.75056 55.4722 8.57744L57.5383 3.60996Z" fill="#F2F4F7"/>
<g clip-path="url(#clip5_2_8955)">
<path d="M57.5383 3.60996C57.7091 3.19932 58.2909 3.19932 58.4617 3.60996L60.5278 8.57744C60.5998 8.75056 60.7626 8.86885 60.9495 8.88383L66.3123 9.31376C66.7556 9.3493 66.9354 9.90256 66.5976 10.1919L62.5117 13.6919C62.3693 13.8139 62.3071 14.0053 62.3506 14.1876L63.5989 19.4208C63.7021 19.8534 63.2315 20.1954 62.8519 19.9635L58.2606 17.1592C58.1006 17.0615 57.8994 17.0615 57.7394 17.1592L53.1481 19.9635C52.7685 20.1954 52.2979 19.8534 52.4011 19.4208L53.6494 14.1876C53.6929 14.0053 53.6307 13.8139 53.4883 13.6919L49.4024 10.1919C49.0646 9.90256 49.2444 9.3493 49.6877 9.31376L55.0505 8.88383C55.2374 8.86885 55.4002 8.75056 55.4722 8.57744L57.5383 3.60996Z" fill="#FDB022"/>
</g>
</g>
<g clip-path="url(#clip6_2_8955)">
<path d="M81.5383 3.60996C81.7091 3.19932 82.2909 3.19932 82.4617 3.60996L84.5278 8.57744C84.5998 8.75056 84.7626 8.86885 84.9495 8.88383L90.3123 9.31376C90.7556 9.3493 90.9354 9.90256 90.5976 10.1919L86.5117 13.6919C86.3693 13.8139 86.3071 14.0053 86.3506 14.1876L87.5989 19.4208C87.7021 19.8534 87.2315 20.1954 86.8519 19.9635L82.2606 17.1592C82.1006 17.0615 81.8994 17.0615 81.7394 17.1592L77.1481 19.9635C76.7685 20.1954 76.2979 19.8534 76.4011 19.4208L77.6494 14.1876C77.6929 14.0053 77.6307 13.8139 77.4883 13.6919L73.4024 10.1919C73.0646 9.90256 73.2444 9.3493 73.6877 9.31376L79.0505 8.88383C79.2374 8.86885 79.4002 8.75056 79.4722 8.57744L81.5383 3.60996Z" fill="#F2F4F7"/>
<g clip-path="url(#clip7_2_8955)">
<path d="M81.5383 3.60996C81.7091 3.19932 82.2909 3.19932 82.4617 3.60996L84.5278 8.57744C84.5998 8.75056 84.7626 8.86885 84.9495 8.88383L90.3123 9.31376C90.7556 9.3493 90.9354 9.90256 90.5976 10.1919L86.5117 13.6919C86.3693 13.8139 86.3071 14.0053 86.3506 14.1876L87.5989 19.4208C87.7021 19.8534 87.2315 20.1954 86.8519 19.9635L82.2606 17.1592C82.1006 17.0615 81.8994 17.0615 81.7394 17.1592L77.1481 19.9635C76.7685 20.1954 76.2979 19.8534 76.4011 19.4208L77.6494 14.1876C77.6929 14.0053 77.6307 13.8139 77.4883 13.6919L73.4024 10.1919C73.0646 9.90256 73.2444 9.3493 73.6877 9.31376L79.0505 8.88383C79.2374 8.86885 79.4002 8.75056 79.4722 8.57744L81.5383 3.60996Z" fill="#FDB022"/>
</g>
</g>
<g clip-path="url(#clip8_2_8955)">
<path d="M105.538 3.60996C105.709 3.19932 106.291 3.19932 106.462 3.60996L108.528 8.57744C108.6 8.75056 108.763 8.86885 108.949 8.88383L114.312 9.31376C114.756 9.3493 114.935 9.90256 114.598 10.1919L110.512 13.6919C110.369 13.8139 110.307 14.0053 110.351 14.1876L111.599 19.4208C111.702 19.8534 111.231 20.1954 110.852 19.9635L106.261 17.1592C106.101 17.0615 105.899 17.0615 105.739 17.1592L101.148 19.9635C100.769 20.1954 100.298 19.8534 100.401 19.4208L101.649 14.1876C101.693 14.0053 101.631 13.8139 101.488 13.6919L97.4024 10.1919C97.0646 9.90256 97.2444 9.3493 97.6877 9.31376L103.051 8.88383C103.237 8.86885 103.4 8.75056 103.472 8.57744L105.538 3.60996Z" fill="#F2F4F7"/>
<g clip-path="url(#clip9_2_8955)">
<path d="M105.538 3.60996C105.709 3.19932 106.291 3.19932 106.462 3.60996L108.528 8.57744C108.6 8.75056 108.763 8.86885 108.949 8.88383L114.312 9.31376C114.756 9.3493 114.935 9.90256 114.598 10.1919L110.512 13.6919C110.369 13.8139 110.307 14.0053 110.351 14.1876L111.599 19.4208C111.702 19.8534 111.231 20.1954 110.852 19.9635L106.261 17.1592C106.101 17.0615 105.899 17.0615 105.739 17.1592L101.148 19.9635C100.769 20.1954 100.298 19.8534 100.401 19.4208L101.649 14.1876C101.693 14.0053 101.631 13.8139 101.488 13.6919L97.4024 10.1919C97.0646 9.90256 97.2444 9.3493 97.6877 9.31376L103.051 8.88383C103.237 8.86885 103.4 8.75056 103.472 8.57744L105.538 3.60996Z" fill="#FDB022"/>
</g>
</g>
<path d="M129.08 18.1591C128.322 18.1591 127.644 18.017 127.045 17.733C126.447 17.4451 125.972 17.0511 125.619 16.5511C125.271 16.0511 125.085 15.4792 125.062 14.8352H127.108C127.146 15.3125 127.352 15.7027 127.727 16.0057C128.102 16.3049 128.553 16.4545 129.08 16.4545C129.492 16.4545 129.86 16.3598 130.182 16.1705C130.504 15.9811 130.758 15.7178 130.943 15.3807C131.129 15.0436 131.22 14.6591 131.216 14.2273C131.22 13.7879 131.127 13.3977 130.938 13.0568C130.748 12.7159 130.489 12.4489 130.159 12.2557C129.83 12.0587 129.451 11.9602 129.023 11.9602C128.674 11.9564 128.331 12.0208 127.994 12.1534C127.657 12.286 127.39 12.4602 127.193 12.6761L125.29 12.3636L125.898 6.36364H132.648V8.125H127.642L127.307 11.2102H127.375C127.591 10.9564 127.896 10.7462 128.29 10.5795C128.684 10.4091 129.116 10.3239 129.585 10.3239C130.29 10.3239 130.919 10.4905 131.472 10.8239C132.025 11.1534 132.46 11.608 132.778 12.1875C133.097 12.767 133.256 13.4299 133.256 14.1761C133.256 14.9451 133.078 15.6307 132.722 16.233C132.369 16.8314 131.879 17.303 131.25 17.6477C130.625 17.9886 129.902 18.1591 129.08 18.1591ZM136.058 18.125C135.714 18.125 135.418 18.0038 135.172 17.7614C134.926 17.5189 134.804 17.2235 134.808 16.875C134.804 16.5341 134.926 16.2424 135.172 16C135.418 15.7576 135.714 15.6364 136.058 15.6364C136.392 15.6364 136.681 15.7576 136.928 16C137.178 16.2424 137.304 16.5341 137.308 16.875C137.304 17.1061 137.244 17.3163 137.126 17.5057C137.013 17.6951 136.861 17.8466 136.672 17.9602C136.486 18.0701 136.282 18.125 136.058 18.125ZM143.257 18.2216C142.321 18.2216 141.518 17.9848 140.848 17.5114C140.181 17.0341 139.668 16.3466 139.308 15.4489C138.952 14.5473 138.774 13.4621 138.774 12.1932C138.778 10.9242 138.958 9.8447 139.314 8.95455C139.674 8.06061 140.187 7.37879 140.854 6.90909C141.524 6.43939 142.325 6.20455 143.257 6.20455C144.189 6.20455 144.99 6.43939 145.661 6.90909C146.331 7.37879 146.844 8.06061 147.2 8.95455C147.56 9.84848 147.74 10.928 147.74 12.1932C147.74 13.4659 147.56 14.553 147.2 15.4545C146.844 16.3523 146.331 17.0379 145.661 17.5114C144.994 17.9848 144.193 18.2216 143.257 18.2216ZM143.257 16.4432C143.984 16.4432 144.558 16.0852 144.979 15.3693C145.403 14.6496 145.615 13.5909 145.615 12.1932C145.615 11.2689 145.518 10.4924 145.325 9.86364C145.132 9.23485 144.859 8.76136 144.507 8.44318C144.155 8.12121 143.738 7.96023 143.257 7.96023C142.534 7.96023 141.962 8.32008 141.541 9.03977C141.121 9.75568 140.909 10.8068 140.905 12.1932C140.901 13.1212 140.994 13.9015 141.183 14.5341C141.376 15.1667 141.649 15.6439 142.001 15.9659C142.354 16.2841 142.772 16.4432 143.257 16.4432Z" fill="#344054"/>
<defs>
<clipPath id="clip0_2_8955">
<rect width="20" height="20" fill="white" transform="translate(0 2)"/>
</clipPath>
<clipPath id="clip1_2_8955">
<rect width="20" height="20" fill="white" transform="translate(0 2)"/>
</clipPath>
<clipPath id="clip2_2_8955">
<rect width="20" height="20" fill="white" transform="translate(24 2)"/>
</clipPath>
<clipPath id="clip3_2_8955">
<rect width="20" height="20" fill="white" transform="translate(24 2)"/>
</clipPath>
<clipPath id="clip4_2_8955">
<rect width="20" height="20" fill="white" transform="translate(48 2)"/>
</clipPath>
<clipPath id="clip5_2_8955">
<rect width="20" height="20" fill="white" transform="translate(48 2)"/>
</clipPath>
<clipPath id="clip6_2_8955">
<rect width="20" height="20" fill="white" transform="translate(72 2)"/>
</clipPath>
<clipPath id="clip7_2_8955">
<rect width="20" height="20" fill="white" transform="translate(72 2)"/>
</clipPath>
<clipPath id="clip8_2_8955">
<rect width="20" height="20" fill="white" transform="translate(96 2)"/>
</clipPath>
<clipPath id="clip9_2_8955">
<rect width="20" height="20" fill="white" transform="translate(96 2)"/>
</clipPath>
</defs>
</svg>
